HIERARCHY
ROOT joint_0
{
	OFFSET 0.000000 0.000000 0.000000
	CHANNELS 6 Xposition Yposition Zposition Zrotation Yrotation Xrotation 
	JOINT joint_1
	{
		OFFSET 0.511002 1.944000 108.288940
		CHANNELS 3 Zrotation Yrotation Xrotation
		JOINT joint_2
		{
			OFFSET -9.074005 1.512993 98.440063
			CHANNELS 3 Zrotation Yrotation Xrotation
			JOINT joint_3
			{
				OFFSET -8.590996 1.815002 98.366943
				CHANNELS 3 Zrotation Yrotation Xrotation
				JOINT joint_4
				{
					OFFSET 2.489998 3.531998 136.462036
					CHANNELS 3 Zrotation Yrotation Xrotation
					JOINT joint_5
					{
						OFFSET 22.708000 2.955002 80.357056
						CHANNELS 3 Zrotation Yrotation Xrotation
						End Site
						{
							OFFSET 0.000000 0.000000 0.000000
						}
					}
				}
				JOINT joint_6
				{
					OFFSET 2.860001 -27.684998 77.234009
					CHANNELS 3 Zrotation Yrotation Xrotation
					JOINT joint_7
					{
						OFFSET 5.449997 -131.244003 -18.851929
						CHANNELS 3 Zrotation Yrotation Xrotation
						JOINT joint_8
						{
							OFFSET 35.757000 -24.661995 -264.074097
							CHANNELS 3 Zrotation Yrotation Xrotation
							JOINT joint_9
							{
								OFFSET 49.392001 -1.747002 -239.960938
								CHANNELS 3 Zrotation Yrotation Xrotation
								End Site
								{
									OFFSET 0.000000 0.000000 0.000000
								}
							}
						}
					}
				}
				JOINT joint_10
				{
					OFFSET -0.127998 31.625000 75.753052
					CHANNELS 3 Zrotation Yrotation Xrotation
					JOINT joint_11
					{
						OFFSET -5.618004 131.132996 -19.557007
						CHANNELS 3 Zrotation Yrotation Xrotation
						JOINT joint_12
						{
							OFFSET 46.488998 30.127991 -261.826050
							CHANNELS 3 Zrotation Yrotation Xrotation
							JOINT joint_13
							{
								OFFSET 66.021003 0.474030 -235.934937
								CHANNELS 3 Zrotation Yrotation Xrotation
								End Site
								{
									OFFSET 0.000000 0.000000 0.000000
								}
							}
						}
					}
				}
			}
		}
	}
	JOINT joint_14
	{
		OFFSET 15.887001 -78.871004 -94.561035
		CHANNELS 3 Zrotation Yrotation Xrotation
		JOINT joint_15
		{
			OFFSET -4.133003 6.714001 -473.615967
			CHANNELS 3 Zrotation Yrotation Xrotation
			JOINT joint_16
			{
				OFFSET -19.541000 5.340000 -399.613007
				CHANNELS 3 Zrotation Yrotation Xrotation
				JOINT joint_17
				{
					OFFSET 164.317001 41.657999 -73.195000
					CHANNELS 3 Zrotation Yrotation Xrotation
					End Site
					{
						OFFSET 0.000000 0.000000 0.000000
					}
				}
			}
		}
	}
	JOINT joint_18
	{
		OFFSET 6.513000 77.960991 -96.406982
		CHANNELS 3 Zrotation Yrotation Xrotation
		JOINT joint_19
		{
			OFFSET -10.660004 -8.518997 -473.485016
			CHANNELS 3 Zrotation Yrotation Xrotation
			JOINT joint_20
			{
				OFFSET -36.967995 -11.098999 -398.260010
				CHANNELS 3 Zrotation Yrotation Xrotation
				JOINT joint_21
				{
					OFFSET 166.067997 30.363998 -74.785000
					CHANNELS 3 Zrotation Yrotation Xrotation
					End Site
					{
						OFFSET 0.000000 0.000000 0.000000
					}
				}
			}
		}
	}
}
MOTION
Frames: 17
Frame Time: 0.016667
-1997.961426 860.640930 1059.038940 3.547533 1.859494 3.912886 -2.015052 6.564366 0.471009 -2.994167 -0.767332 0.148614 -3.168619 1.041111 0.306704 1.103146 -7.373844 -2.653063 0.000000 0.000000 0.000000 14.446406 -18.322779 -2.866381 -14.234972 -12.513403 -4.067972 0.056670 -69.647112 30.771134 0.000000 0.000000 0.000000 -11.001464 -12.207506 0.648517 14.984866 -10.123178 -0.817329 0.716469 -76.198062 -16.116589 0.000000 0.000000 0.000000 -5.283874 -17.228902 -4.785652 -3.273941 39.845080 -2.804417 -6.159200 -6.787774 -0.701921 0.000000 0.000000 0.000000 -2.172194 -4.492182 -1.142734 -2.067454 11.839264 -3.166722 -1.774586 -4.048078 -0.034439 0.000000 0.000000 0.000000 
-1979.393921 859.037842 1060.170044 3.742845 2.010019 4.406172 -2.302162 5.756888 0.557124 -3.115375 -0.759938 0.054858 -3.246509 0.986457 0.331257 1.061485 -7.070255 -2.569401 0.000000 0.000000 0.000000 13.286610 -16.556983 -2.476680 -13.515763 -11.537152 -3.926396 0.703314 -71.546614 30.434152 0.000000 0.000000 0.000000 -10.315700 -9.380525 0.418521 15.284022 -8.181597 -0.560034 0.997279 -79.491088 -16.196084 0.000000 0.000000 0.000000 -5.448926 -18.063181 -5.161367 -3.447601 40.116499 -2.547235 -6.495960 -6.482530 -0.910419 0.000000 0.000000 0.000000 -2.228579 -5.052707 -1.523177 -2.159930 14.703289 -3.340280 -1.777482 -3.949551 -0.046034 0.000000 0.000000 0.000000 
-1961.637207 857.251099 1060.711060 3.755856 2.101372 4.776460 -2.509166 5.003796 0.738737 -3.100115 -0.732815 -0.047098 -3.169280 0.944328 0.357028 0.974183 -6.648501 -2.371905 0.000000 0.000000 0.000000 12.055826 -15.519037 -1.906623 -12.960789 -10.928999 -3.965577 1.279946 -72.689989 30.789352 0.000000 0.000000 0.000000 -9.628289 -7.199712 -0.174339 15.482452 -6.711811 -0.178851 1.096446 -82.027134 -16.384894 0.000000 0.000000 0.000000 -5.580099 -18.620075 -5.395976 -3.817863 38.841779 -2.556399 -7.014781 -6.477313 -1.142867 0.000000 0.000000 0.000000 -2.340292 -5.954872 -1.514319 -2.322162 18.200069 -3.957917 -1.925923 -3.577150 -0.167056 0.000000 0.000000 0.000000 
-1945.153931 855.512939 1060.665039 3.648625 2.017941 4.912406 -2.605043 4.437942 1.209163 -2.929966 -0.731791 -0.221765 -2.910567 0.944719 0.384371 0.802776 -5.863963 -1.990924 0.000000 0.000000 0.000000 10.735310 -15.990592 -0.985177 -12.608637 -11.113908 -4.027222 1.795106 -72.032048 32.116903 0.000000 0.000000 0.000000 -8.806301 -6.457571 -1.028616 15.298251 -6.492975 -0.280965 0.793329 -82.776408 -16.665974 0.000000 0.000000 0.000000 -5.800397 -18.699854 -5.391867 -4.618358 34.688913 -3.032021 -7.768684 -6.233472 -1.576502 0.000000 0.000000 0.000000 -2.567066 -7.192252 -0.917109 -2.669277 22.418237 -5.169754 -2.443226 -2.493390 -0.568674 0.000000 0.000000 0.000000 
-1929.481567 853.591125 1060.029053 3.517209 1.801188 4.950187 -2.632120 4.065631 1.727023 -2.687788 -0.788985 -0.358672 -2.578431 0.963497 0.417119 0.594505 -4.960663 -1.515154 0.000000 0.000000 0.000000 9.219424 -17.242726 0.163300 -12.398842 -11.582325 -4.089817 2.229178 -70.494393 34.175132 0.000000 0.000000 0.000000 -7.898913 -6.194479 -1.938649 14.985582 -6.764834 -0.638532 0.304278 -82.971636 -17.112246 0.000000 0.000000 0.000000 -6.144796 -18.152177 -5.295582 -5.736129 28.265757 -3.488470 -8.452072 -4.969731 -2.258528 0.000000 0.000000 0.000000 -2.851215 -8.664205 0.047936 -3.194965 27.089906 -6.816402 -3.396341 -0.653445 -1.282234 0.000000 0.000000 0.000000 
-1914.500854 850.812561 1057.687012 3.312126 1.500509 4.987474 -2.619891 3.820812 1.921060 -2.432780 -0.810820 -0.285179 -2.258086 0.933566 0.456332 0.446173 -4.348669 -1.161580 0.000000 0.000000 0.000000 7.910147 -18.308300 0.849186 -12.414960 -11.723676 -3.907331 2.383839 -69.496675 36.462761 0.000000 0.000000 0.000000 -7.140832 -5.908838 -2.478422 15.014240 -6.979115 -0.791947 0.026465 -83.475452 -17.885909 0.000000 0.000000 0.000000 -6.370521 -17.631026 -5.237318 -6.602856 23.976911 -3.632931 -9.005674 -3.903387 -2.790929 0.000000 0.000000 0.000000 -3.158143 -10.326380 1.302726 -3.804149 32.202792 -8.910341 -4.721032 1.145851 -2.126726 0.000000 0.000000 0.000000 
-1899.955322 846.537842 1052.605957 2.654982 1.214585 4.720138 -2.471927 3.466841 2.304199 -2.032186 -0.645203 -0.269462 -1.762450 0.786269 0.492988 0.410221 -4.228942 -1.067648 0.000000 0.000000 0.000000 6.984982 -18.695730 0.525605 -12.828299 -11.259992 -3.244173 2.088557 -69.894768 39.048258 0.000000 0.000000 0.000000 -6.637257 -5.488520 -2.435807 15.695724 -6.981842 -0.429441 0.179906 -84.568806 -19.259334 0.000000 0.000000 0.000000 -6.100054 -17.728510 -4.789334 -6.867710 24.677340 -3.869192 -9.692154 -5.293979 -2.694603 0.000000 0.000000 0.000000 -3.652626 -12.301195 3.452022 -4.623768 38.226069 -11.938862 -6.987148 2.871318 -3.306545 0.000000 0.000000 0.000000 
-1886.103394 841.405212 1045.819946 1.714354 0.879360 4.137546 -2.302716 3.220072 3.051623 -1.530244 -0.439507 -0.418198 -1.124571 0.588138 0.525157 0.426723 -4.386964 -1.084827 0.000000 0.000000 0.000000 6.370684 -18.850751 -0.353739 -13.587371 -10.550625 -2.310431 1.450984 -70.960181 41.998534 0.000000 0.000000 0.000000 -6.285597 -5.119476 -2.058059 16.778950 -6.972859 0.174620 0.587643 -85.938704 -20.964279 0.000000 0.000000 0.000000 -5.519848 -18.007823 -3.973370 -6.800857 27.920410 -4.160055 -10.577227 -8.025605 -2.295120 0.000000 0.000000 0.000000 -4.139969 -14.308665 6.366472 -5.477282 44.512847 -15.338658 -10.085447 5.087409 -4.877095 0.000000 0.000000 0.000000 
-1873.594727 836.660278 1039.316040 0.994288 0.523156 3.556697 -2.384044 3.316891 3.734615 -1.169948 -0.378694 -0.581139 -0.615461 0.487769 0.558569 0.414439 -4.580821 -0.986464 0.000000 0.000000 0.000000 6.167471 -19.119419 -1.110916 -14.420143 -10.009531 -1.503515 0.752910 -71.988387 44.692113 0.000000 0.000000 0.000000 -6.003908 -4.745269 -1.591044 17.850202 -6.914936 0.617140 1.027362 -87.632266 -22.323733 0.000000 0.000000 0.000000 -4.997966 -18.092208 -3.278101 -6.725609 30.943217 -4.115559 -11.453631 -10.474222 -1.954092 0.000000 0.000000 0.000000 -4.065755 -16.167098 9.084798 -5.801994 50.047349 -17.663284 -11.906318 6.809362 -5.897578 0.000000 0.000000 0.000000 
-1862.986084 832.506836 1033.411987 0.868500 0.233421 3.058257 -2.958505 3.762241 4.151868 -1.129670 -0.499177 -0.688209 -0.388217 0.578827 0.615024 0.332570 -4.703397 -0.642392 0.000000 0.000000 0.000000 6.638327 -19.699587 -1.518050 -15.252575 -9.791858 -0.999651 0.046274 -72.912547 46.800686 0.000000 0.000000 0.000000 -5.783061 -4.266532 -1.029873 18.749958 -6.728145 0.655688 1.421690 -89.964411 -22.914484 0.000000 0.000000 0.000000 -4.704030 -17.893116 -2.892864 -6.850938 32.885820 -3.527104 -12.234875 -12.516161 -1.695196 0.000000 0.000000 0.000000 -3.201484 -18.309856 11.282628 -5.436823 55.278831 -18.432285 -10.540029 6.596370 -5.434081 0.000000 0.000000 0.000000 
-1853.720581 828.740112 1027.790039 0.991113 -0.017034 2.576665 -3.818309 4.447152 4.428394 -1.234426 -0.718756 -0.776679 -0.263283 0.774176 0.671984 0.225178 -4.838174 -0.182219 0.000000 0.000000 0.000000 7.490747 -20.405512 -1.783808 -16.109527 -9.723273 -0.644050 -0.702781 -73.852779 48.589952 0.000000 0.000000 0.000000 -5.608015 -3.727896 -0.381674 19.582841 -6.462544 0.503297 -178.191131 -87.352030 156.894510 0.000000 0.000000 0.000000 -4.486596 -17.579058 -2.653373 -6.981472 34.661057 -2.614795 -12.916512 -14.419214 -1.434908 0.000000 0.000000 0.000000 -2.040019 -20.659535 13.154391 -4.847414 59.929160 -18.333527 -7.354982 4.885493 -3.988873 0.000000 0.000000 0.000000 
-1844.793457 825.995117 1023.476013 0.819922 -0.245615 2.240903 -4.449083 5.173537 4.562543 -1.243513 -0.934893 -0.845186 -0.090092 0.958747 0.696023 0.130908 -5.025048 0.238706 0.000000 0.000000 0.000000 7.949777 -20.999644 -1.868704 -16.728456 -9.712538 -0.357507 -1.209934 -74.381708 50.092410 0.000000 0.000000 0.000000 -5.413314 -3.263854 0.114673 20.308545 -6.233066 0.422165 -177.892637 -85.098114 156.572436 0.000000 0.000000 0.000000 -4.213281 -17.385900 -2.565805 -6.903044 36.399783 -1.766666 -13.340929 -15.756647 -1.218472 0.000000 0.000000 0.000000 -0.999629 -22.612450 14.535583 -4.257592 62.595343 -17.972767 -4.452269 3.118971 -2.521195 0.000000 0.000000 0.000000 
-1836.110840 824.634705 1020.976013 0.146758 -0.425100 2.165883 -4.565106 5.852727 4.457959 -1.079096 -1.077875 -0.859493 0.124144 1.119034 0.677439 0.055807 -5.338362 0.580987 0.000000 0.000000 0.000000 7.624267 -21.407201 -1.680086 -16.910850 -9.785616 -0.168370 -1.221261 -74.385462 51.100271 0.000000 0.000000 0.000000 -5.285359 -2.989588 0.325326 20.994827 -6.096880 0.597986 -177.690892 -83.465020 155.777533 0.000000 0.000000 0.000000 -3.799859 -17.541063 -2.714283 -6.528957 38.303585 -1.150482 -13.469574 -16.328585 -1.079964 0.000000 0.000000 0.000000 -0.093533 -23.887292 15.346589 -3.466733 62.754794 -17.654508 -2.089198 1.910179 -1.377183 0.000000 0.000000 0.000000 
-1827.766602 824.296021 1019.784973 -0.731093 -0.534954 2.275655 -4.349491 6.438055 4.152073 -0.890134 -1.157343 -0.820865 0.253500 1.267962 0.639845 -0.010967 -5.718377 0.880202 0.000000 0.000000 0.000000 6.895668 -21.652061 -1.292460 -16.759979 -9.954191 -0.078978 -0.850939 -74.033172 51.599463 0.000000 0.000000 0.000000 -5.160062 -2.824577 0.382688 21.574423 -5.975703 0.867059 -177.581260 -82.235633 154.816386 0.000000 0.000000 0.000000 -3.328604 -17.879829 -3.082134 -5.996773 40.203185 -0.598241 -13.381513 -16.378408 -0.992035 0.000000 0.000000 0.000000 0.794098 -24.750078 15.686114 -2.421779 61.123563 -17.216686 0.173183 0.842760 -0.354352 0.000000 0.000000 0.000000 
-1819.028687 824.524048 1019.418030 -1.580019 -0.595265 2.437599 -3.994731 6.749418 3.816736 -0.780866 -1.169596 -0.759785 0.248901 1.345982 0.601719 -0.058839 -6.023794 1.091991 0.000000 0.000000 0.000000 6.162722 -21.631463 -0.914504 -16.446073 -10.123590 0.021578 -0.318053 -73.312864 51.855048 0.000000 0.000000 0.000000 -4.740228 -2.639538 0.424527 21.817635 -5.782205 1.006746 -177.619439 -81.565539 154.094178 0.000000 0.000000 0.000000 -2.908561 -18.078284 -3.567180 -5.446581 41.714290 -0.002530 -13.129312 -16.209109 -0.905963 0.000000 0.000000 0.000000 1.548414 -25.402130 15.709962 -1.399728 58.467638 -16.538072 1.848066 0.054282 0.386833 0.000000 0.000000 0.000000 
-1809.406616 825.202454 1019.943970 -2.319325 -0.599242 2.628442 -3.552457 6.652028 3.495979 -0.801002 -1.087135 -0.680941 0.067446 1.309125 0.557600 -0.080901 -6.222349 1.187334 0.000000 0.000000 0.000000 5.532378 -21.211628 -0.604911 -15.968059 -10.261630 0.182456 0.362841 -72.070974 51.923709 0.000000 0.000000 0.000000 -3.764240 -2.364255 0.510599 21.543094 -5.451008 0.913212 -177.878662 -81.632414 153.763187 0.000000 0.000000 0.000000 -2.576303 -18.026916 -4.209715 -4.902711 42.695395 0.731702 -12.655281 -15.866733 -0.793366 0.000000 0.000000 0.000000 2.103480 -25.827517 15.368325 -0.499072 54.604626 -15.388994 2.734561 -0.190825 0.759049 0.000000 0.000000 0.000000 
-1799.391113 826.448547 1021.294006 -3.075765 -0.568116 2.850872 -3.033704 6.331105 3.191098 -0.860264 -0.958306 -0.600064 -0.168632 1.202468 0.505943 -0.083140 -6.350241 1.197003 0.000000 0.000000 0.000000 4.906806 -20.555885 -0.332301 -15.337210 -10.386196 0.353592 1.136611 -70.430289 51.811353 0.000000 0.000000 0.000000 -2.494213 -2.058676 0.595868 20.923855 -5.058322 0.689030 -178.281323 -82.279360 153.659500 0.000000 0.000000 0.000000 -2.292373 -17.834470 -4.945312 -4.333725 43.304487 1.486511 -12.014663 -15.328602 -0.676408 0.000000 0.000000 0.000000 2.533142 -25.876559 14.708833 0.353937 49.490653 -13.848540 3.053296 0.330200 0.825784 0.000000 0.000000 0.000000 
